<svg width="40" height="40" viewBox="0 0 40 40" fill="none" xmlns="http://www.w3.org/2000/svg">
<rect width="40" height="40" fill="#353535" fill-opacity="0.17"/>
<path d="M5.06066 19.9393C4.47487 19.3536 3.52513 19.3536 2.93934 19.9393C2.35355 20.5251 2.35355 21.4749 2.93934 22.0607L5.06066 19.9393ZM12.9393 32.0607L14 33.1213L16.1213 31L15.0607 29.9393L12.9393 32.0607ZM2.93934 22.0607L12.9393 32.0607L15.0607 29.9393L5.06066 19.9393L2.93934 22.0607Z" fill="black"/>
<path d="M37.0607 10.0607C37.6464 9.47487 37.6464 8.52513 37.0607 7.93934C36.4749 7.35355 35.5251 7.35355 34.9393 7.93934L37.0607 10.0607ZM12.9393 29.9393L11.8787 31L14 33.1213L15.0607 32.0607L12.9393 29.9393ZM34.9393 7.93934L12.9393 29.9393L15.0607 32.0607L37.0607 10.0607L34.9393 7.93934Z" fill="black"/>
</svg>
