<svg width="22" height="22" viewBox="0 0 22 22" fill="none" xmlns="http://www.w3.org/2000/svg">
<path d="M10.2152 1.57129C10.0068 1.57129 9.80695 1.65407 9.6596 1.80142C9.51225 1.94877 9.42947 2.14862 9.42947 2.357C9.42947 2.56539 9.51225 2.76524 9.6596 2.91259C9.80695 3.05994 10.0068 3.14272 10.2152 3.14272H14.143V5.107C14.143 5.75758 13.8947 6.22036 13.5144 6.53465C13.1168 6.86229 12.5205 7.07129 11.7858 7.07129C11.5774 7.07129 11.3776 7.15407 11.2302 7.30142C11.0829 7.44877 11.0001 7.64862 11.0001 7.857C11.0001 8.06539 11.0829 8.26524 11.2302 8.41259C11.3776 8.55994 11.5774 8.64272 11.7858 8.64272C12.8033 8.64272 13.7792 8.35436 14.5154 7.74622C15.2665 7.12393 15.7144 6.21172 15.7144 5.107V2.357C15.7144 2.14862 15.6316 1.94877 15.4843 1.80142C15.3369 1.65407 15.1371 1.57129 14.9287 1.57129H10.2152ZM8.5864 5.98307C8.52721 5.83897 8.4265 5.71571 8.29709 5.62897C8.16769 5.54222 8.01541 5.49591 7.85962 5.49591C7.70382 5.49591 7.55155 5.54222 7.42214 5.62897C7.29273 5.71571 7.19203 5.83897 7.13283 5.98307L1.63126 19.3434C1.55186 19.5361 1.55229 19.7525 1.63245 19.945C1.71261 20.1374 1.86593 20.2901 2.05869 20.3695C2.25144 20.4489 2.46784 20.4485 2.66028 20.3683C2.85272 20.2882 3.00544 20.1348 3.08483 19.9421L4.50462 16.4928H11.2146L12.6344 19.9421C12.6737 20.0375 12.7314 20.1243 12.8043 20.1974C12.8771 20.2706 12.9637 20.3286 13.0589 20.3683C13.1542 20.408 13.2564 20.4285 13.3596 20.4287C13.4628 20.4289 13.5651 20.4088 13.6605 20.3695C13.756 20.3302 13.8428 20.2725 13.9159 20.1996C13.989 20.1268 14.0471 20.0402 14.0868 19.945C14.1265 19.8497 14.147 19.7475 14.1472 19.6443C14.1474 19.5411 14.1273 19.4388 14.088 19.3434L12.548 15.6034C12.5301 15.4689 12.4776 15.3413 12.3955 15.2333L8.5864 5.98307ZM10.5672 14.9221H5.15126L7.85962 8.34572L10.5672 14.9221ZM17.2858 1.57129C17.4942 1.57129 17.6941 1.65407 17.8414 1.80142C17.9888 1.94877 18.0715 2.14862 18.0715 2.357V6.28557H19.643C19.8514 6.28557 20.0512 6.36836 20.1986 6.51571C20.3459 6.66306 20.4287 6.86291 20.4287 7.07129C20.4287 7.27967 20.3459 7.47952 20.1986 7.62687C20.0512 7.77422 19.8514 7.857 19.643 7.857H18.0715V14.9284C18.0715 15.1368 17.9888 15.3367 17.8414 15.484C17.6941 15.6314 17.4942 15.7141 17.2858 15.7141C17.0774 15.7141 16.8776 15.6314 16.7302 15.484C16.5829 15.3367 16.5001 15.1368 16.5001 14.9284V2.357C16.5001 2.14862 16.5829 1.94877 16.7302 1.80142C16.8776 1.65407 17.0774 1.57129 17.2858 1.57129Z" fill="#95969D"/>
</svg>
