<svg width="22" height="20" viewBox="0 0 22 20" fill="none" xmlns="http://www.w3.org/2000/svg">
<path d="M16.351 0.25C17.8038 0.25 19.2013 0.824167 20.2293 1.85442C21.2585 2.8825 21.8338 4.26917 21.8338 5.72083V14.2792C21.8338 17.3017 19.3746 19.75 16.351 19.75H5.64877C2.62518 19.75 0.167099 17.3017 0.167099 14.2792V5.72083C0.167099 2.69833 2.61435 0.25 5.64877 0.25H16.351ZM17.5763 5.88333C17.3488 5.87142 17.1321 5.94833 16.9685 6.1L12.0838 10C11.4554 10.5211 10.5552 10.5211 9.9171 10L5.0421 6.1C4.70518 5.85083 4.23935 5.88333 3.95877 6.17583C3.66627 6.46833 3.63377 6.93417 3.88185 7.25917L4.02377 7.4L8.95293 11.2458C9.5596 11.7225 10.2952 11.9825 11.0654 11.9825C11.8335 11.9825 12.5821 11.7225 13.1877 11.2458L18.0746 7.335L18.1613 7.24833C18.4202 6.93417 18.4202 6.47917 18.1493 6.165C17.9988 6.00358 17.7918 5.905 17.5763 5.88333Z" fill="#0E9D57"/>
</svg>
