<svg width="22" height="22" viewBox="0 0 22 22" fill="none" xmlns="http://www.w3.org/2000/svg">
<path d="M6.5799 12.5923C8.1074 12.5923 9.33156 13.8283 9.33156 15.3667V19.0598C9.33156 20.5873 8.1074 21.8331 6.5799 21.8331H2.91823C1.40156 21.8331 0.166565 20.5873 0.166565 19.0598V15.3667C0.166565 13.8283 1.40156 12.5923 2.91823 12.5923H6.5799ZM19.0817 12.5923C20.5983 12.5923 21.8333 13.8283 21.8333 15.3667V19.0598C21.8333 20.5873 20.5983 21.8331 19.0817 21.8331H15.42C13.8925 21.8331 12.6683 20.5873 12.6683 19.0598V15.3667C12.6683 13.8283 13.8925 12.5923 15.42 12.5923H19.0817ZM6.5799 0.166748C8.1074 0.166748 9.33156 1.41258 9.33156 2.94116V6.63425C9.33156 8.17258 8.1074 9.40758 6.5799 9.40758H2.91823C1.40156 9.40758 0.166565 8.17258 0.166565 6.63425V2.94116C0.166565 1.41258 1.40156 0.166748 2.91823 0.166748H6.5799ZM19.0817 0.166748C20.5983 0.166748 21.8333 1.41258 21.8333 2.94116V6.63425C21.8333 8.17258 20.5983 9.40758 19.0817 9.40758H15.42C13.8925 9.40758 12.6683 8.17258 12.6683 6.63425V2.94116C12.6683 1.41258 13.8925 0.166748 15.42 0.166748H19.0817Z" fill="#CACBCE"/>
</svg>
