<svg width="42" height="45" viewBox="0 0 42 45" fill="none" xmlns="http://www.w3.org/2000/svg">
<mask id="path-1-inside-1_1_16" fill="white">
<path d="M0 20C0 18.8954 0.89543 18 2 18H35C36.1046 18 37 18.8954 37 20V40C37 42.7614 34.7614 45 32 45H5C2.23858 45 0 42.7614 0 40V20Z"/>
</mask>
<path d="M0 20C0 18.8954 0.89543 18 2 18H35C36.1046 18 37 18.8954 37 20V40C37 42.7614 34.7614 45 32 45H5C2.23858 45 0 42.7614 0 40V20Z" fill="#EBEBEB"/>
<path d="M0 20C0 17.2386 2.23858 15 5 15H32C34.7614 15 37 17.2386 37 20V21C37 21 36.1046 21 35 21H2C0.895431 21 0 21 0 21V20ZM37 45H0H37ZM0 45V18V45ZM37 18V45V18Z" fill="black" mask="url(#path-1-inside-1_1_16)"/>
<path d="M33.4 7.48C33.4 11.0317 30.4278 13.96 26.7 13.96C22.9722 13.96 20 11.0317 20 7.48C20 3.92832 22.9722 1 26.7 1C30.4278 1 33.4 3.92832 33.4 7.48Z" fill="#EBEBEB" stroke="black" stroke-width="2"/>
<path d="M39.3889 17.7915C39.8353 18.1168 40.4707 18.026 40.8082 17.5889C41.1457 17.1517 41.0575 16.5337 40.6111 16.2085L39.3889 17.7915ZM30.9889 11.6715L39.3889 17.7915L40.6111 16.2085L32.2111 10.0885L30.9889 11.6715Z" fill="black"/>
<path d="M7 6L15 13.6052" stroke="black" stroke-width="2" stroke-linecap="round"/>
<path d="M7 14L14.6985 6.07162" stroke="black" stroke-width="2" stroke-linecap="round"/>
</svg>
