<svg width="18" height="22" viewBox="0 0 18 22" fill="none" xmlns="http://www.w3.org/2000/svg">
<rect x="0.5" y="0.5" width="16.3334" height="20.6667" rx="1.5" stroke="#95969D"/>
<g clip-path="url(#clip0_20000564_5741)">
<path fill-rule="evenodd" clip-rule="evenodd" d="M9.66659 5.62467C9.66659 5.93409 9.54367 6.23084 9.32488 6.44963C9.10608 6.66843 8.80934 6.79134 8.49992 6.79134C8.1905 6.79134 7.89375 6.66843 7.67496 6.44963C7.45617 6.23084 7.33325 5.93409 7.33325 5.62467C7.33325 5.31526 7.45617 5.01851 7.67496 4.79972C7.89375 4.58092 8.1905 4.45801 8.49992 4.45801C8.80934 4.45801 9.10608 4.58092 9.32488 4.79972C9.54367 5.01851 9.66659 5.31526 9.66659 5.62467ZM9.08325 5.62467C9.08325 5.77938 9.02179 5.92776 8.9124 6.03715C8.803 6.14655 8.65463 6.20801 8.49992 6.20801C8.34521 6.20801 8.19684 6.14655 8.08744 6.03715C7.97804 5.92776 7.91659 5.77938 7.91659 5.62467C7.91659 5.46996 7.97804 5.32159 8.08744 5.2122C8.19684 5.1028 8.34521 5.04134 8.49992 5.04134C8.65463 5.04134 8.803 5.1028 8.9124 5.2122C9.02179 5.32159 9.08325 5.46996 9.08325 5.62467Z" fill="#95969D"/>
<path d="M6.43194 8.03442C6.67536 7.73048 6.98248 7.48323 7.33195 7.31028C7.70097 7.12765 8.10722 7.03281 8.51896 7.03317L8.51892 7.08317L8.51887 7.03317C8.92528 7.03278 9.32642 7.12517 9.69173 7.30329C10.0374 7.47184 10.3424 7.71295 10.586 8.00989C10.8128 7.69647 10.9662 7.33572 11.0346 6.95436C11.1067 6.55191 11.0819 6.13807 10.9624 5.74708C10.8428 5.3561 10.6318 4.9992 10.3469 4.70594C10.0621 4.41267 9.71143 4.19146 9.32407 4.06061C8.93671 3.92975 8.52376 3.89302 8.11939 3.95345C7.71502 4.01387 7.33085 4.16972 6.99867 4.4081C6.66649 4.64648 6.39584 4.96053 6.20913 5.32427C6.02242 5.68801 5.92501 6.09098 5.92496 6.49984L6.43194 8.03442ZM6.43194 8.03442C6.11351 7.60577 5.92496 7.07482 5.92496 6.49984L6.43194 8.03442ZM8.50003 9.07484L8.49988 9.07484C7.92448 9.0757 7.36599 8.88303 6.9139 8.52855C7.09403 8.28319 7.3282 8.08226 7.59853 7.94147C7.88272 7.79345 8.19846 7.71628 8.51888 7.7165H8.51896C8.83538 7.71625 9.1473 7.79149 9.42881 7.93599C9.69642 8.07334 9.92921 8.26951 10.1098 8.50953C9.65386 8.87588 9.08588 9.07566 8.50003 9.07484ZM8.51892 7.6665C8.8433 7.66624 9.16306 7.74338 9.45165 7.8915C9.74023 8.03963 9.98932 8.25446 10.1782 8.51817C9.70725 8.91096 9.11321 9.1257 8.49996 9.12484L8.51892 7.6665ZM8.49996 3.2415C6.70047 3.2415 5.24163 4.70035 5.24163 6.49984C5.24163 8.29933 6.70047 9.75817 8.49996 9.75817C10.2994 9.75817 11.7583 8.29933 11.7583 6.49984C11.7583 4.70035 10.2994 3.2415 8.49996 3.2415Z" fill="#95969D" stroke="#95969D" stroke-width="0.1"/>
</g>
<rect x="4.33301" y="12.9165" width="8.6667" height="1.08334" rx="0.541669" fill="#95969D"/>
<rect x="4.33301" y="15.6836" width="8.6667" height="1.08334" rx="0.541669" fill="#95969D"/>
<defs>
<clipPath id="clip0_20000564_5741">
<rect width="7" height="7" fill="white" transform="translate(5 3)"/>
</clipPath>
</defs>
</svg>
