<svg width="40" height="40" viewBox="0 0 40 40" fill="none" xmlns="http://www.w3.org/2000/svg">
<rect width="40" height="40" fill="#3A3A3A" fill-opacity="0.44"/>
<path d="M10.0651 20.1256C9.47684 19.5422 8.52316 19.5422 7.93495 20.1256C7.34674 20.7089 7.34674 21.6547 7.93495 22.2381L10.0651 20.1256ZM14.8099 29.0563L15.875 30.1125L18.0051 28L16.9401 26.9438L14.8099 29.0563ZM7.93495 22.2381L14.8099 29.0563L16.9401 26.9438L10.0651 20.1256L7.93495 22.2381Z" fill="white"/>
<path d="M32.0651 14.0562C32.6533 13.4729 32.6533 12.5271 32.0651 11.9438C31.4768 11.3604 30.5232 11.3604 29.9349 11.9438L32.0651 14.0562ZM14.8099 26.9437L13.7449 28L15.875 30.1125L16.9401 29.0562L14.8099 26.9437ZM29.9349 11.9438L14.8099 26.9437L16.9401 29.0562L32.0651 14.0562L29.9349 11.9438Z" fill="white"/>
</svg>
