<svg width="40" height="40" viewBox="0 0 40 40" fill="none" xmlns="http://www.w3.org/2000/svg">
<rect width="40" height="40" fill="#3A3A3A" fill-opacity="0.44"/>
<path d="M14.0769 19.4103C13.4821 18.8336 12.5179 18.8336 11.9231 19.4103C11.3284 19.987 11.3284 20.9221 11.9231 21.4988L14.0769 19.4103ZM16.6106 26.0442L17.6875 27.0884L19.8412 25L18.7644 23.9558L16.6106 26.0442ZM11.9231 21.4988L16.6106 26.0442L18.7644 23.9558L14.0769 19.4103L11.9231 21.4988Z" fill="white"/>
<path d="M29.0769 16.0442C29.6716 15.4675 29.6716 14.5325 29.0769 13.9558C28.4821 13.3791 27.5179 13.3791 26.9231 13.9558L29.0769 16.0442ZM16.6106 23.9558L15.5338 25L17.6875 27.0884L18.7643 26.0442L16.6106 23.9558ZM26.9231 13.9558L16.6106 23.9558L18.7643 26.0442L29.0769 16.0442L26.9231 13.9558Z" fill="white"/>
</svg>
